<?xml version="1.0"?>
<svg width="1024" height="1024" xmlns="http://www.w3.org/2000/svg">

    <g transform="translate(25,15)">
        <svg width="974" height="44">
            <text x="50%" y="95%" alignment-baseline="middle" text-anchor="middle" font-size="44">Extreme</text>
        </svg>
    </g>

    <g transform="translate(619,109)">
        <rect width="80" height="20" style="stroke:black;stroke-width:1.5;fill:none"/>
        <svg width="80" height="20">
            <text x="50%" y="70%" text-anchor="middle" font-size="11">1</text>
        </svg>


        <g transform="translate(80,0)">
            <line x1="0" y1="10" x2="300" y2="10" style="stroke:black;stroke-width:1.5"/>
            <line x1="300" y1="10" x2="290" y2="5" style="stroke:black;stroke-width:1.5"/>
            <line x1="300" y1="10" x2="290" y2="15" style="stroke:black;stroke-width:1.5"/>
            <svg width="300" height="20">
                <text x="2%" y="40%" text-anchor="start" font-size="11">mfff-10.3</text>
                <text x="95%" y="40%" text-anchor="end" font-size="11">(0005)</text>
            </svg>
        </g>

    </g>

    <g transform="translate(619,129)">
        <rect width="80" height="20" style="stroke:black;stroke-width:1.5;fill:none"/>
        <svg width="80" height="20">
            <text x="50%" y="70%" text-anchor="middle" font-size="11">2</text>
        </svg>


        <g transform="translate(80,0)">
            <line x1="0" y1="10" x2="300" y2="10" style="stroke:black;stroke-width:1.5"/>
            <line x1="300" y1="10" x2="290" y2="5" style="stroke:black;stroke-width:1.5"/>
            <line x1="300" y1="10" x2="290" y2="15" style="stroke:black;stroke-width:1.5"/>
            <svg width="300" height="20">
                <text x="2%" y="40%" text-anchor="start" font-size="11">fds-35.3</text>
                <text x="95%" y="40%" text-anchor="end" font-size="11">VLAN0901</text>
            </svg>
        </g>

    </g>

    <g transform="translate(619,149)">
        <rect width="80" height="20" style="stroke:black;stroke-width:1.5;fill:none"/>
        <svg width="80" height="20">
            <text x="50%" y="70%" text-anchor="middle" font-size="11">3</text>
        </svg>


        <g transform="translate(80,0)">
            <line x1="0" y1="10" x2="300" y2="10" style="stroke:black;stroke-width:1.5"/>
            <line x1="300" y1="10" x2="290" y2="5" style="stroke:black;stroke-width:1.5"/>
            <line x1="300" y1="10" x2="290" y2="15" style="stroke:black;stroke-width:1.5"/>
            <svg width="300" height="20">
                <text x="2%" y="40%" text-anchor="start" font-size="11">yyyyyx-46</text>
                <text x="95%" y="40%" text-anchor="end" font-size="11">VLAN0901</text>
            </svg>
        </g>

    </g>

    <g transform="translate(619,169)">
        <rect width="80" height="20" style="stroke:black;stroke-width:1.5;fill:none"/>
        <svg width="80" height="20">
            <text x="50%" y="70%" text-anchor="middle" font-size="11">4</text>
        </svg>


    </g>

    <g transform="translate(619,189)">
        <rect width="80" height="20" style="stroke:black;stroke-width:1.5;fill:none"/>
        <svg width="80" height="20">
            <text x="50%" y="70%" text-anchor="middle" font-size="11">5</text>
        </svg>


        <g transform="translate(80,0)">
            <line x1="0" y1="10" x2="300" y2="10" style="stroke:black;stroke-width:1.5"/>
            <line x1="300" y1="10" x2="290" y2="5" style="stroke:black;stroke-width:1.5"/>
            <line x1="300" y1="10" x2="290" y2="15" style="stroke:black;stroke-width:1.5"/>
            <svg width="300" height="20">
                <text x="2%" y="40%" text-anchor="start" font-size="11">mmfsd-10.2</text>
                <text x="95%" y="40%" text-anchor="end" font-size="11">(0005)</text>
            </svg>
        </g>

    </g>

    <g transform="translate(619,209)">
        <rect width="80" height="20" style="stroke:black;stroke-width:1.5;fill:none"/>
        <svg width="80" height="20">
            <text x="50%" y="70%" text-anchor="middle" font-size="11">6</text>
        </svg>


        <g transform="translate(80,0)">
            <line x1="0" y1="10" x2="300" y2="10" style="stroke:black;stroke-width:1.5"/>
            <line x1="300" y1="10" x2="290" y2="5" style="stroke:black;stroke-width:1.5"/>
            <line x1="300" y1="10" x2="290" y2="15" style="stroke:black;stroke-width:1.5"/>
            <svg width="300" height="20">
                <text x="2%" y="40%" text-anchor="start" font-size="11">sfdsfsf-8</text>
                <text x="95%" y="40%" text-anchor="end" font-size="11">VLAN0901</text>
            </svg>
        </g>

    </g>

    <g transform="translate(619,229)">
        <rect width="80" height="20" style="stroke:black;stroke-width:1.5;fill:none"/>
        <svg width="80" height="20">
            <text x="50%" y="70%" text-anchor="middle" font-size="11">7</text>
        </svg>


        <g transform="translate(80,0)">
            <line x1="0" y1="10" x2="300" y2="10" style="stroke:black;stroke-width:1.5"/>
            <line x1="300" y1="10" x2="290" y2="5" style="stroke:black;stroke-width:1.5"/>
            <line x1="300" y1="10" x2="290" y2="15" style="stroke:black;stroke-width:1.5"/>
            <svg width="300" height="20">
                <text x="2%" y="40%" text-anchor="start" font-size="11">fsd-35.2</text>
                <text x="95%" y="40%" text-anchor="end" font-size="11">VLAN0901</text>
            </svg>
        </g>

    </g>

    <g transform="translate(619,249)">
        <rect width="80" height="20" style="stroke:black;stroke-width:1.5;fill:none"/>
        <svg width="80" height="20">
            <text x="50%" y="70%" text-anchor="middle" font-size="11">8</text>
        </svg>


        <g transform="translate(80,0)">
            <line x1="0" y1="10" x2="300" y2="10" style="stroke:black;stroke-width:1.5"/>
            <line x1="300" y1="10" x2="290" y2="5" style="stroke:black;stroke-width:1.5"/>
            <line x1="300" y1="10" x2="290" y2="15" style="stroke:black;stroke-width:1.5"/>
            <svg width="300" height="20">
                <text x="2%" y="40%" text-anchor="start" font-size="11">ggggaa-12.2</text>
                <text x="95%" y="40%" text-anchor="end" font-size="11">VLAN0901</text>
            </svg>
        </g>

    </g>

    <g transform="translate(619,269)">
        <rect width="80" height="20" style="stroke:black;stroke-width:1.5;fill:none"/>
        <svg width="80" height="20">
            <text x="50%" y="70%" text-anchor="middle" font-size="11">9</text>
        </svg>


        <g transform="translate(80,0)">
            <line x1="0" y1="10" x2="300" y2="10" style="stroke:black;stroke-width:1.5"/>
            <line x1="300" y1="10" x2="290" y2="5" style="stroke:black;stroke-width:1.5"/>
            <line x1="300" y1="10" x2="290" y2="15" style="stroke:black;stroke-width:1.5"/>
            <svg width="300" height="20">
                <text x="2%" y="40%" text-anchor="start" font-size="11">ggggaa-12.3</text>
                <text x="95%" y="40%" text-anchor="end" font-size="11">VLAN0901</text>
            </svg>
        </g>

    </g>

    <g transform="translate(619,289)">
        <rect width="80" height="20" style="stroke:black;stroke-width:1.5;fill:none"/>
        <svg width="80" height="20">
            <text x="50%" y="70%" text-anchor="middle" font-size="11">10</text>
        </svg>


        <g transform="translate(80,0)">
            <line x1="0" y1="10" x2="300" y2="10" style="stroke:black;stroke-width:1.5"/>
            <line x1="300" y1="10" x2="290" y2="5" style="stroke:black;stroke-width:1.5"/>
            <line x1="300" y1="10" x2="290" y2="15" style="stroke:black;stroke-width:1.5"/>
            <svg width="300" height="20">
                <text x="2%" y="40%" text-anchor="start" font-size="11">vfsfssfe-4.2</text>
                <text x="95%" y="40%" text-anchor="end" font-size="11">VLAN0901</text>
            </svg>
        </g>

    </g>

    <g transform="translate(619,309)">
        <rect width="80" height="20" style="stroke:black;stroke-width:1.5;fill:none"/>
        <svg width="80" height="20">
            <text x="50%" y="70%" text-anchor="middle" font-size="11">11</text>
        </svg>


        <g transform="translate(80,0)">
            <line x1="0" y1="10" x2="300" y2="10" style="stroke:black;stroke-width:1.5"/>
            <line x1="300" y1="10" x2="290" y2="5" style="stroke:black;stroke-width:1.5"/>
            <line x1="300" y1="10" x2="290" y2="15" style="stroke:black;stroke-width:1.5"/>
            <svg width="300" height="20">
                <text x="2%" y="40%" text-anchor="start" font-size="11">vfsfssfe-4.3</text>
                <text x="95%" y="40%" text-anchor="end" font-size="11">VLAN0901</text>
            </svg>
        </g>

    </g>

    <g transform="translate(619,329)">
        <rect width="80" height="20" style="stroke:black;stroke-width:1.5;fill:none"/>
        <svg width="80" height="20">
            <text x="50%" y="70%" text-anchor="middle" font-size="11">12</text>
        </svg>


        <g transform="translate(80,0)">
            <line x1="0" y1="10" x2="300" y2="10" style="stroke:black;stroke-width:1.5"/>
            <line x1="300" y1="10" x2="290" y2="5" style="stroke:black;stroke-width:1.5"/>
            <line x1="300" y1="10" x2="290" y2="15" style="stroke:black;stroke-width:1.5"/>
            <svg width="300" height="20">
                <text x="2%" y="40%" text-anchor="start" font-size="11">mfff-9</text>
                <text x="95%" y="40%" text-anchor="end" font-size="11">VLAN0962</text>
            </svg>
        </g>

    </g>

    <g transform="translate(619,349)">
        <rect width="80" height="20" style="stroke:black;stroke-width:1.5;fill:none"/>
        <svg width="80" height="20">
            <text x="50%" y="70%" text-anchor="middle" font-size="11">13</text>
        </svg>


        <g transform="translate(80,0)">
            <line x1="0" y1="10" x2="300" y2="10" style="stroke:black;stroke-width:1.5"/>
            <line x1="300" y1="10" x2="290" y2="5" style="stroke:black;stroke-width:1.5"/>
            <line x1="300" y1="10" x2="290" y2="15" style="stroke:black;stroke-width:1.5"/>
            <svg width="300" height="20">
                <text x="2%" y="40%" text-anchor="start" font-size="11">nfsfsfs-5</text>
                <text x="95%" y="40%" text-anchor="end" font-size="11">VLAN0901</text>
            </svg>
        </g>

    </g>

    <g transform="translate(619,369)">
        <rect width="80" height="20" style="stroke:black;stroke-width:1.5;fill:none"/>
        <svg width="80" height="20">
            <text x="50%" y="70%" text-anchor="middle" font-size="11">14</text>
        </svg>


        <g transform="translate(80,0)">
            <line x1="0" y1="10" x2="300" y2="10" style="stroke:black;stroke-width:1.5"/>
            <line x1="300" y1="10" x2="290" y2="5" style="stroke:black;stroke-width:1.5"/>
            <line x1="300" y1="10" x2="290" y2="15" style="stroke:black;stroke-width:1.5"/>
            <svg width="300" height="20">
                <text x="2%" y="40%" text-anchor="start" font-size="11">ofdsfs</text>
                <text x="95%" y="40%" text-anchor="end" font-size="11">VLAN0901</text>
            </svg>
        </g>

    </g>

    <g transform="translate(619,389)">
        <rect width="80" height="20" style="stroke:black;stroke-width:1.5;fill:none"/>
        <svg width="80" height="20">
            <text x="50%" y="70%" text-anchor="middle" font-size="11">15</text>
        </svg>


        <g transform="translate(80,0)">
            <line x1="0" y1="10" x2="300" y2="10" style="stroke:black;stroke-width:1.5"/>
            <line x1="300" y1="10" x2="290" y2="5" style="stroke:black;stroke-width:1.5"/>
            <line x1="300" y1="10" x2="290" y2="15" style="stroke:black;stroke-width:1.5"/>
            <svg width="300" height="20">
                <text x="2%" y="40%" text-anchor="start" font-size="11">mmmm-14</text>
                <text x="95%" y="40%" text-anchor="end" font-size="11">VLAN0963</text>
            </svg>
        </g>

    </g>

    <g transform="translate(619,409)">
        <rect width="80" height="20" style="stroke:black;stroke-width:1.5;fill:none"/>
        <svg width="80" height="20">
            <text x="50%" y="70%" text-anchor="middle" font-size="11">16</text>
        </svg>


        <g transform="translate(80,0)">
            <line x1="0" y1="10" x2="300" y2="10" style="stroke:black;stroke-width:1.5"/>
            <line x1="300" y1="10" x2="290" y2="5" style="stroke:black;stroke-width:1.5"/>
            <line x1="300" y1="10" x2="290" y2="15" style="stroke:black;stroke-width:1.5"/>
            <svg width="300" height="20">
                <text x="2%" y="40%" text-anchor="start" font-size="11">mmmm-18</text>
                <text x="95%" y="40%" text-anchor="end" font-size="11">VLAN0901</text>
            </svg>
        </g>

    </g>

    <g transform="translate(619,429)">
        <rect width="80" height="20" style="stroke:black;stroke-width:1.5;fill:none"/>
        <svg width="80" height="20">
            <text x="50%" y="70%" text-anchor="middle" font-size="11">17</text>
        </svg>


        <g transform="translate(80,0)">
            <line x1="0" y1="10" x2="300" y2="10" style="stroke:black;stroke-width:1.5"/>
            <line x1="300" y1="10" x2="290" y2="5" style="stroke:black;stroke-width:1.5"/>
            <line x1="300" y1="10" x2="290" y2="15" style="stroke:black;stroke-width:1.5"/>
            <svg width="300" height="20">
                <text x="2%" y="40%" text-anchor="start" font-size="11">mmmm-21</text>
                <text x="95%" y="40%" text-anchor="end" font-size="11">VLAN0960</text>
            </svg>
        </g>

    </g>

    <g transform="translate(619,449)">
        <rect width="80" height="20" style="stroke:black;stroke-width:1.5;fill:none"/>
        <svg width="80" height="20">
            <text x="50%" y="70%" text-anchor="middle" font-size="11">18</text>
        </svg>


    </g>

    <g transform="translate(619,469)">
        <rect width="80" height="20" style="stroke:black;stroke-width:1.5;fill:none"/>
        <svg width="80" height="20">
            <text x="50%" y="70%" text-anchor="middle" font-size="11">19</text>
        </svg>


    </g>

    <g transform="translate(619,489)">
        <rect width="80" height="20" style="stroke:black;stroke-width:1.5;fill:none"/>
        <svg width="80" height="20">
            <text x="50%" y="70%" text-anchor="middle" font-size="11">20</text>
        </svg>


    </g>

    <g transform="translate(619,509)">
        <rect width="80" height="20" style="stroke:black;stroke-width:1.5;fill:none"/>
        <svg width="80" height="20">
            <text x="50%" y="70%" text-anchor="middle" font-size="11">21</text>
        </svg>


        <g transform="translate(80,0)">
            <line x1="0" y1="10" x2="300" y2="10" style="stroke:black;stroke-width:1.5"/>
            <line x1="300" y1="10" x2="290" y2="5" style="stroke:black;stroke-width:1.5"/>
            <line x1="300" y1="10" x2="290" y2="15" style="stroke:black;stroke-width:1.5"/>
            <svg width="300" height="20">
                <text x="2%" y="40%" text-anchor="start" font-size="11">mmmm-28</text>
                <text x="95%" y="40%" text-anchor="end" font-size="11">VLAN0964</text>
            </svg>
        </g>

    </g>

    <g transform="translate(619,529)">
        <rect width="80" height="20" style="stroke:black;stroke-width:1.5;fill:none"/>
        <svg width="80" height="20">
            <text x="50%" y="70%" text-anchor="middle" font-size="11">22</text>
        </svg>


        <g transform="translate(80,0)">
            <line x1="0" y1="10" x2="300" y2="10" style="stroke:black;stroke-width:1.5"/>
            <line x1="300" y1="10" x2="290" y2="5" style="stroke:black;stroke-width:1.5"/>
            <line x1="300" y1="10" x2="290" y2="15" style="stroke:black;stroke-width:1.5"/>
            <svg width="300" height="20">
                <text x="2%" y="40%" text-anchor="start" font-size="11">illl-5</text>
                <text x="95%" y="40%" text-anchor="end" font-size="11">VLAN0901</text>
            </svg>
        </g>

    </g>

    <g transform="translate(619,549)">
        <rect width="80" height="20" style="stroke:black;stroke-width:1.5;fill:none"/>
        <svg width="80" height="20">
            <text x="50%" y="70%" text-anchor="middle" font-size="11">23</text>
        </svg>


        <g transform="translate(80,0)">
            <line x1="0" y1="10" x2="300" y2="10" style="stroke:black;stroke-width:1.5"/>
            <line x1="300" y1="10" x2="290" y2="5" style="stroke:black;stroke-width:1.5"/>
            <line x1="300" y1="10" x2="290" y2="15" style="stroke:black;stroke-width:1.5"/>
            <svg width="300" height="20">
                <text x="2%" y="40%" text-anchor="start" font-size="11">affff-6</text>
                <text x="95%" y="40%" text-anchor="end" font-size="11">VLAN0901</text>
            </svg>
        </g>

    </g>

    <g transform="translate(619,569)">
        <rect width="80" height="20" style="stroke:black;stroke-width:1.5;fill:none"/>
        <svg width="80" height="20">
            <text x="50%" y="70%" text-anchor="middle" font-size="11">24</text>
        </svg>


        <g transform="translate(80,0)">
            <line x1="0" y1="10" x2="300" y2="10" style="stroke:black;stroke-width:1.5"/>
            <line x1="300" y1="10" x2="290" y2="5" style="stroke:black;stroke-width:1.5"/>
            <line x1="300" y1="10" x2="290" y2="15" style="stroke:black;stroke-width:1.5"/>
            <svg width="300" height="20">
                <text x="2%" y="40%" text-anchor="start" font-size="11">mfff-10.4</text>
                <text x="95%" y="40%" text-anchor="end" font-size="11">(0005)</text>
            </svg>
        </g>

    </g>

    <g transform="translate(619,589)">
        <rect width="80" height="20" style="stroke:black;stroke-width:1.5;fill:none"/>
        <svg width="80" height="20">
            <text x="50%" y="70%" text-anchor="middle" font-size="11">25</text>
        </svg>


        <g transform="translate(80,0)">
            <line x1="0" y1="10" x2="300" y2="10" style="stroke:black;stroke-width:1.5"/>
            <line x1="300" y1="10" x2="290" y2="5" style="stroke:black;stroke-width:1.5"/>
            <line x1="300" y1="10" x2="290" y2="15" style="stroke:black;stroke-width:1.5"/>
            <svg width="300" height="20">
                <text x="2%" y="40%" text-anchor="start" font-size="11">mfff-10.5</text>
                <text x="95%" y="40%" text-anchor="end" font-size="11">(0005)</text>
            </svg>
        </g>

    </g>

    <g transform="translate(619,609)">
        <rect width="80" height="20" style="stroke:black;stroke-width:1.5;fill:none"/>
        <svg width="80" height="20">
            <text x="50%" y="70%" text-anchor="middle" font-size="11">26</text>
        </svg>


        <g transform="translate(80,0)">
            <line x1="0" y1="10" x2="300" y2="10" style="stroke:black;stroke-width:1.5"/>
            <line x1="300" y1="10" x2="290" y2="5" style="stroke:black;stroke-width:1.5"/>
            <line x1="300" y1="10" x2="290" y2="15" style="stroke:black;stroke-width:1.5"/>
            <svg width="300" height="20">
                <text x="2%" y="40%" text-anchor="start" font-size="11">mdfsssfs8</text>
                <text x="95%" y="40%" text-anchor="end" font-size="11">VLAN0901</text>
            </svg>
        </g>

    </g>

    <g transform="translate(619,629)">
        <rect width="80" height="20" style="stroke:black;stroke-width:1.5;fill:none"/>
        <svg width="80" height="20">
            <text x="50%" y="70%" text-anchor="middle" font-size="11">27</text>
        </svg>


        <g transform="translate(80,0)">
            <line x1="0" y1="10" x2="300" y2="10" style="stroke:black;stroke-width:1.5"/>
            <line x1="300" y1="10" x2="290" y2="5" style="stroke:black;stroke-width:1.5"/>
            <line x1="300" y1="10" x2="290" y2="15" style="stroke:black;stroke-width:1.5"/>
            <svg width="300" height="20">
                <text x="2%" y="40%" text-anchor="start" font-size="11">vfsfssfe-4.4</text>
                <text x="95%" y="40%" text-anchor="end" font-size="11">VLAN0901</text>
            </svg>
        </g>

    </g>

    <g transform="translate(619,649)">
        <rect width="80" height="20" style="stroke:black;stroke-width:1.5;fill:none"/>
        <svg width="80" height="20">
            <text x="50%" y="70%" text-anchor="middle" font-size="11">28</text>
        </svg>


        <g transform="translate(80,0)">
            <line x1="0" y1="10" x2="300" y2="10" style="stroke:black;stroke-width:1.5"/>
            <line x1="300" y1="10" x2="290" y2="5" style="stroke:black;stroke-width:1.5"/>
            <line x1="300" y1="10" x2="290" y2="15" style="stroke:black;stroke-width:1.5"/>
            <svg width="300" height="20">
                <text x="2%" y="40%" text-anchor="start" font-size="11">vfsfssfe-4.5</text>
                <text x="95%" y="40%" text-anchor="end" font-size="11">VLAN0901</text>
            </svg>
        </g>

    </g>

    <g transform="translate(619,669)">
        <rect width="80" height="20" style="stroke:black;stroke-width:1.5;fill:none"/>
        <svg width="80" height="20">
            <text x="50%" y="70%" text-anchor="middle" font-size="11">29</text>
        </svg>


        <g transform="translate(80,0)">
            <line x1="0" y1="10" x2="300" y2="10" style="stroke:black;stroke-width:1.5"/>
            <line x1="300" y1="10" x2="290" y2="5" style="stroke:black;stroke-width:1.5"/>
            <line x1="300" y1="10" x2="290" y2="15" style="stroke:black;stroke-width:1.5"/>
            <svg width="300" height="20">
                <text x="2%" y="40%" text-anchor="start" font-size="11">sffsf02</text>
                <text x="95%" y="40%" text-anchor="end" font-size="11">VLAN0901</text>
            </svg>
        </g>

    </g>

    <g transform="translate(619,689)">
        <rect width="80" height="20" style="stroke:black;stroke-width:1.5;fill:none"/>
        <svg width="80" height="20">
            <text x="50%" y="70%" text-anchor="middle" font-size="11">30</text>
        </svg>


        <g transform="translate(80,0)">
            <line x1="0" y1="10" x2="300" y2="10" style="stroke:black;stroke-width:1.5"/>
            <line x1="300" y1="10" x2="290" y2="5" style="stroke:black;stroke-width:1.5"/>
            <line x1="300" y1="10" x2="290" y2="15" style="stroke:black;stroke-width:1.5"/>
            <svg width="300" height="20">
                <text x="2%" y="40%" text-anchor="start" font-size="11">dfdfff-2</text>
                <text x="95%" y="40%" text-anchor="end" font-size="11">VLAN0901</text>
            </svg>
        </g>

    </g>

    <g transform="translate(619,709)">
        <rect width="80" height="20" style="stroke:black;stroke-width:1.5;fill:none"/>
        <svg width="80" height="20">
            <text x="50%" y="70%" text-anchor="middle" font-size="11">31</text>
        </svg>


        <g transform="translate(80,0)">
            <line x1="0" y1="10" x2="300" y2="10" style="stroke:black;stroke-width:1.5"/>
            <line x1="300" y1="10" x2="290" y2="5" style="stroke:black;stroke-width:1.5"/>
            <line x1="300" y1="10" x2="290" y2="15" style="stroke:black;stroke-width:1.5"/>
            <svg width="300" height="20">
                <text x="2%" y="40%" text-anchor="start" font-size="11">ekt-rs1-span</text>
                <text x="95%" y="40%" text-anchor="end" font-size="11"></text>
            </svg>
        </g>

    </g>

    <g transform="translate(619,729)">
        <rect width="80" height="20" style="stroke:black;stroke-width:1.5;fill:none"/>
        <svg width="80" height="20">
            <text x="50%" y="70%" text-anchor="middle" font-size="11">32</text>
        </svg>


    </g>

    <g transform="translate(619,749)">
        <rect width="80" height="20" style="stroke:black;stroke-width:1.5;fill:none"/>
        <svg width="80" height="20">
            <text x="50%" y="70%" text-anchor="middle" font-size="11">33</text>
        </svg>


    </g>

    <g transform="translate(619,769)">
        <rect width="80" height="20" style="stroke:black;stroke-width:1.5;fill:none"/>
        <svg width="80" height="20">
            <text x="50%" y="70%" text-anchor="middle" font-size="11">34</text>
        </svg>


    </g>

    <g transform="translate(619,789)">
        <rect width="80" height="20" style="stroke:black;stroke-width:1.5;fill:none"/>
        <svg width="80" height="20">
            <text x="50%" y="70%" text-anchor="middle" font-size="11">35</text>
        </svg>


    </g>

    <g transform="translate(619,809)">
        <rect width="80" height="20" style="stroke:black;stroke-width:1.5;fill:none"/>
        <svg width="80" height="20">
            <text x="50%" y="70%" text-anchor="middle" font-size="11">36</text>
        </svg>


    </g>

    <g transform="translate(619,829)">
        <rect width="80" height="20" style="stroke:black;stroke-width:1.5;fill:none"/>
        <svg width="80" height="20">
            <text x="50%" y="70%" text-anchor="middle" font-size="11">37</text>
        </svg>


    </g>

    <g transform="translate(619,849)">
        <rect width="80" height="20" style="stroke:black;stroke-width:1.5;fill:none"/>
        <svg width="80" height="20">
            <text x="50%" y="70%" text-anchor="middle" font-size="11">38</text>
        </svg>


    </g>

    <g transform="translate(619,869)">
        <rect width="80" height="20" style="stroke:black;stroke-width:1.5;fill:none"/>
        <svg width="80" height="20">
            <text x="50%" y="70%" text-anchor="middle" font-size="11">39</text>
        </svg>


    </g>

    <g transform="translate(619,889)">
        <rect width="80" height="20" style="stroke:black;stroke-width:1.5;fill:none"/>
        <svg width="80" height="20">
            <text x="50%" y="70%" text-anchor="middle" font-size="11">40</text>
        </svg>


    </g>

    <g transform="translate(619,909)">
        <rect width="80" height="20" style="stroke:black;stroke-width:1.5;fill:none"/>
        <svg width="80" height="20">
            <text x="50%" y="70%" text-anchor="middle" font-size="11">41</text>
        </svg>


    </g>

    <g transform="translate(619,929)">
        <rect width="80" height="20" style="stroke:black;stroke-width:1.5;fill:none"/>
        <svg width="80" height="20">
            <text x="50%" y="70%" text-anchor="middle" font-size="11">42</text>
        </svg>


    </g>

    <g transform="translate(619,949)">
        <rect width="80" height="20" style="stroke:black;stroke-width:1.5;fill:none"/>
        <svg width="80" height="20">
            <text x="50%" y="70%" text-anchor="middle" font-size="11">43</text>
        </svg>


    </g>

    <g transform="translate(325,109)">
        <rect width="80" height="20" style="stroke:black;stroke-width:1.5;fill:none"/>
        <svg width="80" height="20">
            <text x="50%" y="70%" text-anchor="middle" font-size="11">44</text>
        </svg>


        <line x1="0" y1="10" x2="-300" y2="10" style="stroke:black;stroke-width:1.5"/>
        <line x1="-300" y1="10" x2="-290" y2="5" style="stroke:black;stroke-width:1.5"/>
        <line x1="-300" y1="10" x2="-290" y2="15" style="stroke:black;stroke-width:1.5"/>
        <g transform="translate(-300,0)">
            <svg width="300" height="20">
                <text x="98%" y="40%" text-anchor="end" font-size="11">ekt-s1=ekt-s13-6</text>
                <text x="5%" y="40%" text-anchor="start" font-size="11">(0003)</text>
            </svg>
        </g>

    </g>

    <g transform="translate(325,129)">
        <rect width="80" height="20" style="stroke:black;stroke-width:1.5;fill:none"/>
        <svg width="80" height="20">
            <text x="50%" y="70%" text-anchor="middle" font-size="11">45</text>
        </svg>


        <line x1="0" y1="10" x2="-300" y2="10" style="stroke:black;stroke-width:1.5"/>
        <line x1="-300" y1="10" x2="-290" y2="5" style="stroke:black;stroke-width:1.5"/>
        <line x1="-300" y1="10" x2="-290" y2="15" style="stroke:black;stroke-width:1.5"/>
        <g transform="translate(-300,0)">
            <svg width="300" height="20">
                <text x="98%" y="40%" text-anchor="end" font-size="11">ekt-s1=ekt-s13-2</text>
                <text x="5%" y="40%" text-anchor="start" font-size="11">(0003)</text>
            </svg>
        </g>

    </g>

    <g transform="translate(325,149)">
        <rect width="80" height="20" style="stroke:black;stroke-width:1.5;fill:none"/>
        <svg width="80" height="20">
            <text x="50%" y="70%" text-anchor="middle" font-size="11">46</text>
        </svg>


        <line x1="0" y1="10" x2="-300" y2="10" style="stroke:black;stroke-width:1.5"/>
        <line x1="-300" y1="10" x2="-290" y2="5" style="stroke:black;stroke-width:1.5"/>
        <line x1="-300" y1="10" x2="-290" y2="15" style="stroke:black;stroke-width:1.5"/>
        <g transform="translate(-300,0)">
            <svg width="300" height="20">
                <text x="98%" y="40%" text-anchor="end" font-size="11">ekt-s1=ekt-s13-3</text>
                <text x="5%" y="40%" text-anchor="start" font-size="11">(0003)</text>
            </svg>
        </g>

    </g>

    <g transform="translate(325,169)">
        <rect width="80" height="20" style="stroke:black;stroke-width:1.5;fill:none"/>
        <svg width="80" height="20">
            <text x="50%" y="70%" text-anchor="middle" font-size="11">47</text>
        </svg>


        <line x1="0" y1="10" x2="-300" y2="10" style="stroke:black;stroke-width:1.5"/>
        <line x1="-300" y1="10" x2="-290" y2="5" style="stroke:black;stroke-width:1.5"/>
        <line x1="-300" y1="10" x2="-290" y2="15" style="stroke:black;stroke-width:1.5"/>
        <g transform="translate(-300,0)">
            <svg width="300" height="20">
                <text x="98%" y="40%" text-anchor="end" font-size="11">ekt-s1=ekt-s13-4</text>
                <text x="5%" y="40%" text-anchor="start" font-size="11">(0003)</text>
            </svg>
        </g>

    </g>

    <g transform="translate(325,189)">
        <rect width="80" height="20" style="stroke:black;stroke-width:1.5;fill:none"/>
        <svg width="80" height="20">
            <text x="50%" y="70%" text-anchor="middle" font-size="11">48</text>
        </svg>


        <line x1="0" y1="10" x2="-300" y2="10" style="stroke:black;stroke-width:1.5"/>
        <line x1="-300" y1="10" x2="-290" y2="5" style="stroke:black;stroke-width:1.5"/>
        <line x1="-300" y1="10" x2="-290" y2="15" style="stroke:black;stroke-width:1.5"/>
        <g transform="translate(-300,0)">
            <svg width="300" height="20">
                <text x="98%" y="40%" text-anchor="end" font-size="11">ekt-s1=ekt-s13-5</text>
                <text x="5%" y="40%" text-anchor="start" font-size="11">(0003)</text>
            </svg>
        </g>

    </g>

    <g transform="translate(325,209)">
        <rect width="80" height="20" style="stroke:black;stroke-width:1.5;fill:none"/>
        <svg width="80" height="20">
            <text x="50%" y="70%" text-anchor="middle" font-size="11">49</text>
        </svg>


    </g>

    <g transform="translate(325,229)">
        <rect width="80" height="20" style="stroke:black;stroke-width:1.5;fill:none"/>
        <svg width="80" height="20">
            <text x="50%" y="70%" text-anchor="middle" font-size="11">50</text>
        </svg>


    </g>

    <g transform="translate(325,249)">
        <rect width="80" height="20" style="stroke:black;stroke-width:1.5;fill:none"/>
        <svg width="80" height="20">
            <text x="50%" y="70%" text-anchor="middle" font-size="11">51</text>
        </svg>


    </g>

    <g transform="translate(325,269)">
        <rect width="80" height="20" style="stroke:black;stroke-width:1.5;fill:none"/>
        <svg width="80" height="20">
            <text x="50%" y="70%" text-anchor="middle" font-size="11">52</text>
        </svg>


    </g>

    <g transform="translate(325,289)">
        <rect width="80" height="20" style="stroke:black;stroke-width:1.5;fill:none"/>
        <svg width="80" height="20">
            <text x="50%" y="70%" text-anchor="middle" font-size="11">53</text>
        </svg>


    </g>

    <g transform="translate(325,309)">
        <rect width="80" height="20" style="stroke:black;stroke-width:1.5;fill:none"/>
        <svg width="80" height="20">
            <text x="50%" y="70%" text-anchor="middle" font-size="11">54</text>
        </svg>


    </g>

    <g transform="translate(325,329)">
        <rect width="80" height="20" style="stroke:black;stroke-width:1.5;fill:none"/>
        <svg width="80" height="20">
            <text x="50%" y="70%" text-anchor="middle" font-size="11">55</text>
        </svg>


    </g>

    <g transform="translate(325,349)">
        <rect width="80" height="20" style="stroke:black;stroke-width:1.5;fill:none"/>
        <svg width="80" height="20">
            <text x="50%" y="70%" text-anchor="middle" font-size="11">56</text>
        </svg>


    </g>

    <g transform="translate(325,369)">
        <rect width="80" height="20" style="stroke:black;stroke-width:1.5;fill:none"/>
        <svg width="80" height="20">
            <text x="50%" y="70%" text-anchor="middle" font-size="11">57</text>
        </svg>


    </g>

    <g transform="translate(325,389)">
        <rect width="80" height="20" style="stroke:black;stroke-width:1.5;fill:none"/>
        <svg width="80" height="20">
            <text x="50%" y="70%" text-anchor="middle" font-size="11">58</text>
        </svg>


    </g>

    <g transform="translate(325,409)">
        <rect width="80" height="20" style="stroke:black;stroke-width:1.5;fill:none"/>
        <svg width="80" height="20">
            <text x="50%" y="70%" text-anchor="middle" font-size="11">59</text>
        </svg>


    </g>

    <g transform="translate(325,429)">
        <rect width="80" height="20" style="stroke:black;stroke-width:1.5;fill:none"/>
        <svg width="80" height="20">
            <text x="50%" y="70%" text-anchor="middle" font-size="11">60</text>
        </svg>


    </g>

    <g transform="translate(325,449)">
        <rect width="80" height="20" style="stroke:black;stroke-width:1.5;fill:none"/>
        <svg width="80" height="20">
            <text x="50%" y="70%" text-anchor="middle" font-size="11">61</text>
        </svg>


    </g>

    <g transform="translate(325,469)">
        <rect width="80" height="20" style="stroke:black;stroke-width:1.5;fill:none"/>
        <svg width="80" height="20">
            <text x="50%" y="70%" text-anchor="middle" font-size="11">62</text>
        </svg>


    </g>

    <g transform="translate(325,489)">
        <rect width="80" height="20" style="stroke:black;stroke-width:1.5;fill:none"/>
        <svg width="80" height="20">
            <text x="50%" y="70%" text-anchor="middle" font-size="11">63</text>
        </svg>


    </g>

    <g transform="translate(325,509)">
        <rect width="80" height="20" style="stroke:black;stroke-width:1.5;fill:none"/>
        <svg width="80" height="20">
            <text x="50%" y="70%" text-anchor="middle" font-size="11">64</text>
        </svg>


    </g>

    <g transform="translate(405,109)">
        <rect width="214" height="860" style="stroke:black;stroke-width:1.5;fill:none"/>
        <svg width="214" height="860">
            <text x="50%" y="50%" text-anchor="middle" font-size="14">255.255.255.255</text>
        </svg>
    </g>
</svg>