<?xml version="1.0"?>
<svg width="1024" height="1024" xmlns="http://www.w3.org/2000/svg">

    <g transform="translate(25,15)">
        <svg width="974" height="44">
            <text x="50%" y="95%" text-anchor="middle" font-size="44">Force10</text>
        </svg>
    </g>

    <g transform="translate(619,109)">
        <rect width="80" height="20" style="stroke:black;stroke-width:1.5;fill:none"/>
        <svg width="80" height="20">
            <text x="50%" y="70%" text-anchor="middle" font-size="11">Gi 0/34</text>
        </svg>


    </g>

    <g transform="translate(619,129)">
        <rect width="80" height="20" style="stroke:black;stroke-width:1.5;fill:none"/>
        <svg width="80" height="20">
            <text x="50%" y="70%" text-anchor="middle" font-size="11">Gi 0/35</text>
        </svg>


    </g>

    <g transform="translate(619,149)">
        <rect width="80" height="20" style="stroke:black;stroke-width:1.5;fill:none"/>
        <svg width="80" height="20">
            <text x="50%" y="70%" text-anchor="middle" font-size="11">Gi 0/36</text>
        </svg>


        <g transform="translate(80,0)">
            <line x1="0" y1="10" x2="300" y2="10" style="stroke:black;stroke-width:1.5"/>
            <line x1="300" y1="10" x2="290" y2="5" style="stroke:black;stroke-width:1.5"/>
            <line x1="300" y1="10" x2="290" y2="15" style="stroke:black;stroke-width:1.5"/>
            <svg width="300" height="20">
                <text x="2%" y="40%" text-anchor="start" font-size="11">m10-s4+m10-</text>
                <text x="95%" y="40%" text-anchor="end" font-size="11">801</text>
            </svg>
        </g>

    </g>

    <g transform="translate(619,169)">
        <rect width="80" height="20" style="stroke:black;stroke-width:1.5;fill:none"/>
        <svg width="80" height="20">
            <text x="50%" y="70%" text-anchor="middle" font-size="11">Gi 0/37</text>
        </svg>


        <g transform="translate(80,0)">
            <line x1="0" y1="10" x2="300" y2="10" style="stroke:black;stroke-width:1.5"/>
            <line x1="300" y1="10" x2="290" y2="5" style="stroke:black;stroke-width:1.5"/>
            <line x1="300" y1="10" x2="290" y2="15" style="stroke:black;stroke-width:1.5"/>
            <svg width="300" height="20">
                <text x="2%" y="40%" text-anchor="start" font-size="11">m10-s4+m10-</text>
                <text x="95%" y="40%" text-anchor="end" font-size="11">801</text>
            </svg>
        </g>

    </g>

    <g transform="translate(619,189)">
        <rect width="80" height="20" style="stroke:black;stroke-width:1.5;fill:none"/>
        <svg width="80" height="20">
            <text x="50%" y="70%" text-anchor="middle" font-size="11">Gi 0/38</text>
        </svg>


        <g transform="translate(80,0)">
            <line x1="0" y1="10" x2="300" y2="10" style="stroke:black;stroke-width:1.5"/>
            <line x1="300" y1="10" x2="290" y2="5" style="stroke:black;stroke-width:1.5"/>
            <line x1="300" y1="10" x2="290" y2="15" style="stroke:black;stroke-width:1.5"/>
            <svg width="300" height="20">
                <text x="2%" y="40%" text-anchor="start" font-size="11">m10-s2+m10-</text>
                <text x="95%" y="40%" text-anchor="end" font-size="11">801</text>
            </svg>
        </g>

    </g>

    <g transform="translate(619,209)">
        <rect width="80" height="20" style="stroke:black;stroke-width:1.5;fill:none"/>
        <svg width="80" height="20">
            <text x="50%" y="70%" text-anchor="middle" font-size="11">Gi 0/39</text>
        </svg>


    </g>

    <g transform="translate(619,229)">
        <rect width="80" height="20" style="stroke:black;stroke-width:1.5;fill:none"/>
        <svg width="80" height="20">
            <text x="50%" y="70%" text-anchor="middle" font-size="11">Gi 0/40</text>
        </svg>


        <g transform="translate(80,0)">
            <line x1="0" y1="10" x2="300" y2="10" style="stroke:black;stroke-width:1.5"/>
            <line x1="300" y1="10" x2="290" y2="5" style="stroke:black;stroke-width:1.5"/>
            <line x1="300" y1="10" x2="290" y2="15" style="stroke:black;stroke-width:1.5"/>
            <svg width="300" height="20">
                <text x="2%" y="40%" text-anchor="start" font-size="11">m10-w2+m10-</text>
                <text x="95%" y="40%" text-anchor="end" font-size="11">750</text>
            </svg>
        </g>

    </g>

    <g transform="translate(619,249)">
        <rect width="80" height="20" style="stroke:black;stroke-width:1.5;fill:none"/>
        <svg width="80" height="20">
            <text x="50%" y="70%" text-anchor="middle" font-size="11">Gi 0/41</text>
        </svg>


        <g transform="translate(80,0)">
            <line x1="0" y1="10" x2="300" y2="10" style="stroke:black;stroke-width:1.5"/>
            <line x1="300" y1="10" x2="290" y2="5" style="stroke:black;stroke-width:1.5"/>
            <line x1="300" y1="10" x2="290" y2="15" style="stroke:black;stroke-width:1.5"/>
            <svg width="300" height="20">
                <text x="2%" y="40%" text-anchor="start" font-size="11">m10-w1+m10-</text>
                <text x="95%" y="40%" text-anchor="end" font-size="11">750</text>
            </svg>
        </g>

    </g>

    <g transform="translate(619,269)">
        <rect width="80" height="20" style="stroke:black;stroke-width:1.5;fill:none"/>
        <svg width="80" height="20">
            <text x="50%" y="70%" text-anchor="middle" font-size="11">Gi 0/42</text>
        </svg>


        <g transform="translate(80,0)">
            <line x1="0" y1="10" x2="300" y2="10" style="stroke:black;stroke-width:1.5"/>
            <line x1="300" y1="10" x2="290" y2="5" style="stroke:black;stroke-width:1.5"/>
            <line x1="300" y1="10" x2="290" y2="15" style="stroke:black;stroke-width:1.5"/>
            <svg width="300" height="20">
                <text x="2%" y="40%" text-anchor="start" font-size="11">m10-cs1+m10</text>
                <text x="95%" y="40%" text-anchor="end" font-size="11">811</text>
            </svg>
        </g>

    </g>

    <g transform="translate(619,289)">
        <rect width="80" height="20" style="stroke:black;stroke-width:1.5;fill:none"/>
        <svg width="80" height="20">
            <text x="50%" y="70%" text-anchor="middle" font-size="11">Gi 0/43</text>
        </svg>


        <g transform="translate(80,0)">
            <line x1="0" y1="10" x2="300" y2="10" style="stroke:black;stroke-width:1.5"/>
            <line x1="300" y1="10" x2="290" y2="5" style="stroke:black;stroke-width:1.5"/>
            <line x1="300" y1="10" x2="290" y2="15" style="stroke:black;stroke-width:1.5"/>
            <svg width="300" height="20">
                <text x="2%" y="40%" text-anchor="start" font-size="11">ripn-mobile</text>
                <text x="95%" y="40%" text-anchor="end" font-size="11">416</text>
            </svg>
        </g>

    </g>

    <g transform="translate(619,309)">
        <rect width="80" height="20" style="stroke:black;stroke-width:1.5;fill:none"/>
        <svg width="80" height="20">
            <text x="50%" y="70%" text-anchor="middle" font-size="11">Gi 0/44</text>
        </svg>


    </g>

    <g transform="translate(619,329)">
        <rect width="80" height="20" style="stroke:black;stroke-width:1.5;fill:none"/>
        <svg width="80" height="20">
            <text x="50%" y="70%" text-anchor="middle" font-size="11">Gi 0/45</text>
        </svg>


        <g transform="translate(80,0)">
            <line x1="0" y1="10" x2="300" y2="10" style="stroke:black;stroke-width:1.5"/>
            <line x1="300" y1="10" x2="290" y2="5" style="stroke:black;stroke-width:1.5"/>
            <line x1="300" y1="10" x2="290" y2="15" style="stroke:black;stroke-width:1.5"/>
            <svg width="300" height="20">
                <text x="2%" y="40%" text-anchor="start" font-size="11">kxxx-14.2</text>
                <text x="95%" y="40%" text-anchor="end" font-size="11">875</text>
            </svg>
        </g>

    </g>

    <g transform="translate(619,349)">
        <rect width="80" height="20" style="stroke:black;stroke-width:1.5;fill:none"/>
        <svg width="80" height="20">
            <text x="50%" y="70%" text-anchor="middle" font-size="11">Gi 0/46</text>
        </svg>


        <g transform="translate(80,0)">
            <line x1="0" y1="10" x2="300" y2="10" style="stroke:black;stroke-width:1.5"/>
            <line x1="300" y1="10" x2="290" y2="5" style="stroke:black;stroke-width:1.5"/>
            <line x1="300" y1="10" x2="290" y2="15" style="stroke:black;stroke-width:1.5"/>
            <svg width="300" height="20">
                <text x="2%" y="40%" text-anchor="start" font-size="11">kxxx-15.2</text>
                <text x="95%" y="40%" text-anchor="end" font-size="11">879</text>
            </svg>
        </g>

    </g>

    <g transform="translate(619,369)">
        <rect width="80" height="20" style="stroke:black;stroke-width:1.5;fill:none"/>
        <svg width="80" height="20">
            <text x="50%" y="70%" text-anchor="middle" font-size="11">Gi 0/47</text>
        </svg>


        <g transform="translate(80,0)">
            <line x1="0" y1="10" x2="300" y2="10" style="stroke:black;stroke-width:1.5"/>
            <line x1="300" y1="10" x2="290" y2="5" style="stroke:black;stroke-width:1.5"/>
            <line x1="300" y1="10" x2="290" y2="15" style="stroke:black;stroke-width:1.5"/>
            <svg width="300" height="20">
                <text x="2%" y="40%" text-anchor="start" font-size="11">anfdffsk</text>
                <text x="95%" y="40%" text-anchor="end" font-size="11">701</text>
            </svg>
        </g>

    </g>

    <g transform="translate(619,389)">
        <rect width="80" height="20" style="stroke:black;stroke-width:1.5;fill:none"/>
        <svg width="80" height="20">
            <text x="50%" y="70%" text-anchor="middle" font-size="11">Te 0/48</text>
        </svg>


    </g>

    <g transform="translate(619,409)">
        <rect width="80" height="20" style="stroke:black;stroke-width:1.5;fill:none"/>
        <svg width="80" height="20">
            <text x="50%" y="70%" text-anchor="middle" font-size="11">Te 0/49</text>
        </svg>


    </g>

    <g transform="translate(619,429)">
        <rect width="80" height="20" style="stroke:black;stroke-width:1.5;fill:none"/>
        <svg width="80" height="20">
            <text x="50%" y="70%" text-anchor="middle" font-size="11">Te 0/50</text>
        </svg>


        <g transform="translate(80,0)">
            <line x1="0" y1="10" x2="300" y2="10" style="stroke:black;stroke-width:1.5"/>
            <line x1="300" y1="10" x2="290" y2="5" style="stroke:black;stroke-width:1.5"/>
            <line x1="300" y1="10" x2="290" y2="15" style="stroke:black;stroke-width:1.5"/>
            <svg width="300" height="20">
                <text x="2%" y="40%" text-anchor="start" font-size="11">m10-s4=m10-</text>
                <text x="95%" y="40%" text-anchor="end" font-size="11"></text>
            </svg>
        </g>

    </g>

    <g transform="translate(619,449)">
        <rect width="80" height="20" style="stroke:black;stroke-width:1.5;fill:none"/>
        <svg width="80" height="20">
            <text x="50%" y="70%" text-anchor="middle" font-size="11">Te 0/51</text>
        </svg>


        <g transform="translate(80,0)">
            <line x1="0" y1="10" x2="300" y2="10" style="stroke:black;stroke-width:1.5"/>
            <line x1="300" y1="10" x2="290" y2="5" style="stroke:black;stroke-width:1.5"/>
            <line x1="300" y1="10" x2="290" y2="15" style="stroke:black;stroke-width:1.5"/>
            <svg width="300" height="20">
                <text x="2%" y="40%" text-anchor="start" font-size="11">m10-s4=m10-</text>
                <text x="95%" y="40%" text-anchor="end" font-size="11"></text>
            </svg>
        </g>

    </g>

    <g transform="translate(619,469)">
        <rect width="80" height="20" style="stroke:black;stroke-width:1.5;fill:none"/>
        <svg width="80" height="20">
            <text x="50%" y="70%" text-anchor="middle" font-size="11">Gi 0/0</text>
        </svg>


        <g transform="translate(80,0)">
            <line x1="0" y1="10" x2="300" y2="10" style="stroke:black;stroke-width:1.5"/>
            <line x1="300" y1="10" x2="290" y2="5" style="stroke:black;stroke-width:1.5"/>
            <line x1="300" y1="10" x2="290" y2="15" style="stroke:black;stroke-width:1.5"/>
            <svg width="300" height="20">
                <text x="2%" y="40%" text-anchor="start" font-size="11">abcdd-10.2</text>
                <text x="95%" y="40%" text-anchor="end" font-size="11">786-787,999</text>
            </svg>
        </g>

    </g>

    <g transform="translate(619,489)">
        <rect width="80" height="20" style="stroke:black;stroke-width:1.5;fill:none"/>
        <svg width="80" height="20">
            <text x="50%" y="70%" text-anchor="middle" font-size="11">Gi 0/1</text>
        </svg>


        <g transform="translate(80,0)">
            <line x1="0" y1="10" x2="300" y2="10" style="stroke:black;stroke-width:1.5"/>
            <line x1="300" y1="10" x2="290" y2="5" style="stroke:black;stroke-width:1.5"/>
            <line x1="300" y1="10" x2="290" y2="15" style="stroke:black;stroke-width:1.5"/>
            <svg width="300" height="20">
                <text x="2%" y="40%" text-anchor="start" font-size="11">defgg</text>
                <text x="95%" y="40%" text-anchor="end" font-size="11">828</text>
            </svg>
        </g>

    </g>

    <g transform="translate(619,509)">
        <rect width="80" height="20" style="stroke:black;stroke-width:1.5;fill:none"/>
        <svg width="80" height="20">
            <text x="50%" y="70%" text-anchor="middle" font-size="11">Gi 0/2</text>
        </svg>


        <g transform="translate(80,0)">
            <line x1="0" y1="10" x2="300" y2="10" style="stroke:black;stroke-width:1.5"/>
            <line x1="300" y1="10" x2="290" y2="5" style="stroke:black;stroke-width:1.5"/>
            <line x1="300" y1="10" x2="290" y2="15" style="stroke:black;stroke-width:1.5"/>
            <svg width="300" height="20">
                <text x="2%" y="40%" text-anchor="start" font-size="11">rfv-4.2</text>
                <text x="95%" y="40%" text-anchor="end" font-size="11">743</text>
            </svg>
        </g>

    </g>

    <g transform="translate(619,529)">
        <rect width="80" height="20" style="stroke:black;stroke-width:1.5;fill:none"/>
        <svg width="80" height="20">
            <text x="50%" y="70%" text-anchor="middle" font-size="11">Gi 0/3</text>
        </svg>


    </g>

    <g transform="translate(619,549)">
        <rect width="80" height="20" style="stroke:black;stroke-width:1.5;fill:none"/>
        <svg width="80" height="20">
            <text x="50%" y="70%" text-anchor="middle" font-size="11">Gi 0/4</text>
        </svg>


        <g transform="translate(80,0)">
            <line x1="0" y1="10" x2="300" y2="10" style="stroke:black;stroke-width:1.5"/>
            <line x1="300" y1="10" x2="290" y2="5" style="stroke:black;stroke-width:1.5"/>
            <line x1="300" y1="10" x2="290" y2="15" style="stroke:black;stroke-width:1.5"/>
            <svg width="300" height="20">
                <text x="2%" y="40%" text-anchor="start" font-size="11">frgts-9</text>
                <text x="95%" y="40%" text-anchor="end" font-size="11">701</text>
            </svg>
        </g>

    </g>

    <g transform="translate(619,569)">
        <rect width="80" height="20" style="stroke:black;stroke-width:1.5;fill:none"/>
        <svg width="80" height="20">
            <text x="50%" y="70%" text-anchor="middle" font-size="11">Gi 0/5</text>
        </svg>


        <g transform="translate(80,0)">
            <line x1="0" y1="10" x2="300" y2="10" style="stroke:black;stroke-width:1.5"/>
            <line x1="300" y1="10" x2="290" y2="5" style="stroke:black;stroke-width:1.5"/>
            <line x1="300" y1="10" x2="290" y2="15" style="stroke:black;stroke-width:1.5"/>
            <svg width="300" height="20">
                <text x="2%" y="40%" text-anchor="start" font-size="11">adfdfd-2</text>
                <text x="95%" y="40%" text-anchor="end" font-size="11">701</text>
            </svg>
        </g>

    </g>

    <g transform="translate(619,589)">
        <rect width="80" height="20" style="stroke:black;stroke-width:1.5;fill:none"/>
        <svg width="80" height="20">
            <text x="50%" y="70%" text-anchor="middle" font-size="11">Gi 0/6</text>
        </svg>


        <g transform="translate(80,0)">
            <line x1="0" y1="10" x2="300" y2="10" style="stroke:black;stroke-width:1.5"/>
            <line x1="300" y1="10" x2="290" y2="5" style="stroke:black;stroke-width:1.5"/>
            <line x1="300" y1="10" x2="290" y2="15" style="stroke:black;stroke-width:1.5"/>
            <svg width="300" height="20">
                <text x="2%" y="40%" text-anchor="start" font-size="11">yuuig.2</text>
                <text x="95%" y="40%" text-anchor="end" font-size="11">798</text>
            </svg>
        </g>

    </g>

    <g transform="translate(619,609)">
        <rect width="80" height="20" style="stroke:black;stroke-width:1.5;fill:none"/>
        <svg width="80" height="20">
            <text x="50%" y="70%" text-anchor="middle" font-size="11">Gi 0/7</text>
        </svg>


        <g transform="translate(80,0)">
            <line x1="0" y1="10" x2="300" y2="10" style="stroke:black;stroke-width:1.5"/>
            <line x1="300" y1="10" x2="290" y2="5" style="stroke:black;stroke-width:1.5"/>
            <line x1="300" y1="10" x2="290" y2="15" style="stroke:black;stroke-width:1.5"/>
            <svg width="300" height="20">
                <text x="2%" y="40%" text-anchor="start" font-size="11">rrrrrr.2</text>
                <text x="95%" y="40%" text-anchor="end" font-size="11">858</text>
            </svg>
        </g>

    </g>

    <g transform="translate(619,629)">
        <rect width="80" height="20" style="stroke:black;stroke-width:1.5;fill:none"/>
        <svg width="80" height="20">
            <text x="50%" y="70%" text-anchor="middle" font-size="11">Gi 0/8</text>
        </svg>


        <g transform="translate(80,0)">
            <line x1="0" y1="10" x2="300" y2="10" style="stroke:black;stroke-width:1.5"/>
            <line x1="300" y1="10" x2="290" y2="5" style="stroke:black;stroke-width:1.5"/>
            <line x1="300" y1="10" x2="290" y2="15" style="stroke:black;stroke-width:1.5"/>
            <svg width="300" height="20">
                <text x="2%" y="40%" text-anchor="start" font-size="11">ttttttttt-5</text>
                <text x="95%" y="40%" text-anchor="end" font-size="11"></text>
            </svg>
        </g>

    </g>

    <g transform="translate(619,649)">
        <rect width="80" height="20" style="stroke:black;stroke-width:1.5;fill:none"/>
        <svg width="80" height="20">
            <text x="50%" y="70%" text-anchor="middle" font-size="11">Gi 0/9</text>
        </svg>


    </g>

    <g transform="translate(619,669)">
        <rect width="80" height="20" style="stroke:black;stroke-width:1.5;fill:none"/>
        <svg width="80" height="20">
            <text x="50%" y="70%" text-anchor="middle" font-size="11">Gi 0/10</text>
        </svg>


    </g>

    <g transform="translate(619,689)">
        <rect width="80" height="20" style="stroke:black;stroke-width:1.5;fill:none"/>
        <svg width="80" height="20">
            <text x="50%" y="70%" text-anchor="middle" font-size="11">Gi 0/11</text>
        </svg>


        <g transform="translate(80,0)">
            <line x1="0" y1="10" x2="300" y2="10" style="stroke:black;stroke-width:1.5"/>
            <line x1="300" y1="10" x2="290" y2="5" style="stroke:black;stroke-width:1.5"/>
            <line x1="300" y1="10" x2="290" y2="15" style="stroke:black;stroke-width:1.5"/>
            <svg width="300" height="20">
                <text x="2%" y="40%" text-anchor="start" font-size="11">ttttttttt-5</text>
                <text x="95%" y="40%" text-anchor="end" font-size="11"></text>
            </svg>
        </g>

    </g>

    <g transform="translate(619,709)">
        <rect width="80" height="20" style="stroke:black;stroke-width:1.5;fill:none"/>
        <svg width="80" height="20">
            <text x="50%" y="70%" text-anchor="middle" font-size="11">Gi 0/12</text>
        </svg>


        <g transform="translate(80,0)">
            <line x1="0" y1="10" x2="300" y2="10" style="stroke:black;stroke-width:1.5"/>
            <line x1="300" y1="10" x2="290" y2="5" style="stroke:black;stroke-width:1.5"/>
            <line x1="300" y1="10" x2="290" y2="15" style="stroke:black;stroke-width:1.5"/>
            <svg width="300" height="20">
                <text x="2%" y="40%" text-anchor="start" font-size="11">dfsfs</text>
                <text x="95%" y="40%" text-anchor="end" font-size="11">701</text>
            </svg>
        </g>

    </g>

    <g transform="translate(619,729)">
        <rect width="80" height="20" style="stroke:black;stroke-width:1.5;fill:none"/>
        <svg width="80" height="20">
            <text x="50%" y="70%" text-anchor="middle" font-size="11">Gi 0/13</text>
        </svg>


    </g>

    <g transform="translate(619,749)">
        <rect width="80" height="20" style="stroke:black;stroke-width:1.5;fill:none"/>
        <svg width="80" height="20">
            <text x="50%" y="70%" text-anchor="middle" font-size="11">Gi 0/14</text>
        </svg>


    </g>

    <g transform="translate(619,769)">
        <rect width="80" height="20" style="stroke:black;stroke-width:1.5;fill:none"/>
        <svg width="80" height="20">
            <text x="50%" y="70%" text-anchor="middle" font-size="11">Gi 0/15</text>
        </svg>


        <g transform="translate(80,0)">
            <line x1="0" y1="10" x2="300" y2="10" style="stroke:black;stroke-width:1.5"/>
            <line x1="300" y1="10" x2="290" y2="5" style="stroke:black;stroke-width:1.5"/>
            <line x1="300" y1="10" x2="290" y2="15" style="stroke:black;stroke-width:1.5"/>
            <svg width="300" height="20">
                <text x="2%" y="40%" text-anchor="start" font-size="11">gggm-3</text>
                <text x="95%" y="40%" text-anchor="end" font-size="11">406</text>
            </svg>
        </g>

    </g>

    <g transform="translate(619,789)">
        <rect width="80" height="20" style="stroke:black;stroke-width:1.5;fill:none"/>
        <svg width="80" height="20">
            <text x="50%" y="70%" text-anchor="middle" font-size="11">Gi 0/16</text>
        </svg>


        <g transform="translate(80,0)">
            <line x1="0" y1="10" x2="300" y2="10" style="stroke:black;stroke-width:1.5"/>
            <line x1="300" y1="10" x2="290" y2="5" style="stroke:black;stroke-width:1.5"/>
            <line x1="300" y1="10" x2="290" y2="15" style="stroke:black;stroke-width:1.5"/>
            <svg width="300" height="20">
                <text x="2%" y="40%" text-anchor="start" font-size="11">jku-4</text>
                <text x="95%" y="40%" text-anchor="end" font-size="11">701</text>
            </svg>
        </g>

    </g>

    <g transform="translate(619,809)">
        <rect width="80" height="20" style="stroke:black;stroke-width:1.5;fill:none"/>
        <svg width="80" height="20">
            <text x="50%" y="70%" text-anchor="middle" font-size="11">Gi 0/17</text>
        </svg>


    </g>

    <g transform="translate(619,829)">
        <rect width="80" height="20" style="stroke:black;stroke-width:1.5;fill:none"/>
        <svg width="80" height="20">
            <text x="50%" y="70%" text-anchor="middle" font-size="11">Gi 0/18</text>
        </svg>


    </g>

    <g transform="translate(619,849)">
        <rect width="80" height="20" style="stroke:black;stroke-width:1.5;fill:none"/>
        <svg width="80" height="20">
            <text x="50%" y="70%" text-anchor="middle" font-size="11">Gi 0/19</text>
        </svg>


    </g>

    <g transform="translate(619,869)">
        <rect width="80" height="20" style="stroke:black;stroke-width:1.5;fill:none"/>
        <svg width="80" height="20">
            <text x="50%" y="70%" text-anchor="middle" font-size="11">Gi 0/20</text>
        </svg>


        <g transform="translate(80,0)">
            <line x1="0" y1="10" x2="300" y2="10" style="stroke:black;stroke-width:1.5"/>
            <line x1="300" y1="10" x2="290" y2="5" style="stroke:black;stroke-width:1.5"/>
            <line x1="300" y1="10" x2="290" y2="15" style="stroke:black;stroke-width:1.5"/>
            <svg width="300" height="20">
                <text x="2%" y="40%" text-anchor="start" font-size="11">comfdfsf</text>
                <text x="95%" y="40%" text-anchor="end" font-size="11">701</text>
            </svg>
        </g>

    </g>

    <g transform="translate(619,889)">
        <rect width="80" height="20" style="stroke:black;stroke-width:1.5;fill:none"/>
        <svg width="80" height="20">
            <text x="50%" y="70%" text-anchor="middle" font-size="11">Gi 0/21</text>
        </svg>


    </g>

    <g transform="translate(619,909)">
        <rect width="80" height="20" style="stroke:black;stroke-width:1.5;fill:none"/>
        <svg width="80" height="20">
            <text x="50%" y="70%" text-anchor="middle" font-size="11">Gi 0/22</text>
        </svg>


    </g>

    <g transform="translate(619,929)">
        <rect width="80" height="20" style="stroke:black;stroke-width:1.5;fill:none"/>
        <svg width="80" height="20">
            <text x="50%" y="70%" text-anchor="middle" font-size="11">Gi 0/23</text>
        </svg>


    </g>

    <g transform="translate(619,949)">
        <rect width="80" height="20" style="stroke:black;stroke-width:1.5;fill:none"/>
        <svg width="80" height="20">
            <text x="50%" y="70%" text-anchor="middle" font-size="11">Gi 0/24</text>
        </svg>


    </g>

    <g transform="translate(325,109)">
        <rect width="80" height="20" style="stroke:black;stroke-width:1.5;fill:none"/>
        <svg width="80" height="20">
            <text x="50%" y="70%" text-anchor="middle" font-size="11">Gi 0/25</text>
        </svg>


    </g>

    <g transform="translate(325,129)">
        <rect width="80" height="20" style="stroke:black;stroke-width:1.5;fill:none"/>
        <svg width="80" height="20">
            <text x="50%" y="70%" text-anchor="middle" font-size="11">Gi 0/26</text>
        </svg>


    </g>

    <g transform="translate(325,149)">
        <rect width="80" height="20" style="stroke:black;stroke-width:1.5;fill:none"/>
        <svg width="80" height="20">
            <text x="50%" y="70%" text-anchor="middle" font-size="11">Gi 0/27</text>
        </svg>


        <line x1="0" y1="10" x2="-300" y2="10" style="stroke:black;stroke-width:1.5"/>
        <line x1="-300" y1="10" x2="-290" y2="5" style="stroke:black;stroke-width:1.5"/>
        <line x1="-300" y1="10" x2="-290" y2="15" style="stroke:black;stroke-width:1.5"/>
        <g transform="translate(-300,0)">
            <svg width="300" height="20">
                <text x="98%" y="40%" text-anchor="end" font-size="11">comoma-2</text>
                <text x="5%" y="40%" text-anchor="start" font-size="11">701</text>
            </svg>
        </g>

    </g>

    <g transform="translate(325,169)">
        <rect width="80" height="20" style="stroke:black;stroke-width:1.5;fill:none"/>
        <svg width="80" height="20">
            <text x="50%" y="70%" text-anchor="middle" font-size="11">Gi 0/28</text>
        </svg>


    </g>

    <g transform="translate(325,189)">
        <rect width="80" height="20" style="stroke:black;stroke-width:1.5;fill:none"/>
        <svg width="80" height="20">
            <text x="50%" y="70%" text-anchor="middle" font-size="11">Gi 0/29</text>
        </svg>


    </g>

    <g transform="translate(325,209)">
        <rect width="80" height="20" style="stroke:black;stroke-width:1.5;fill:none"/>
        <svg width="80" height="20">
            <text x="50%" y="70%" text-anchor="middle" font-size="11">Gi 0/30</text>
        </svg>


        <line x1="0" y1="10" x2="-300" y2="10" style="stroke:black;stroke-width:1.5"/>
        <line x1="-300" y1="10" x2="-290" y2="5" style="stroke:black;stroke-width:1.5"/>
        <line x1="-300" y1="10" x2="-290" y2="15" style="stroke:black;stroke-width:1.5"/>
        <g transform="translate(-300,0)">
            <svg width="300" height="20">
                <text x="98%" y="40%" text-anchor="end" font-size="11">mmfsfnet-2</text>
                <text x="5%" y="40%" text-anchor="start" font-size="11">701</text>
            </svg>
        </g>

    </g>

    <g transform="translate(325,229)">
        <rect width="80" height="20" style="stroke:black;stroke-width:1.5;fill:none"/>
        <svg width="80" height="20">
            <text x="50%" y="70%" text-anchor="middle" font-size="11">Gi 0/31</text>
        </svg>


        <line x1="0" y1="10" x2="-300" y2="10" style="stroke:black;stroke-width:1.5"/>
        <line x1="-300" y1="10" x2="-290" y2="5" style="stroke:black;stroke-width:1.5"/>
        <line x1="-300" y1="10" x2="-290" y2="15" style="stroke:black;stroke-width:1.5"/>
        <g transform="translate(-300,0)">
            <svg width="300" height="20">
                <text x="98%" y="40%" text-anchor="end" font-size="11">ttttttttt-4</text>
                <text x="5%" y="40%" text-anchor="start" font-size="11">779</text>
            </svg>
        </g>

    </g>

    <g transform="translate(325,249)">
        <rect width="80" height="20" style="stroke:black;stroke-width:1.5;fill:none"/>
        <svg width="80" height="20">
            <text x="50%" y="70%" text-anchor="middle" font-size="11">Gi 0/32</text>
        </svg>


        <line x1="0" y1="10" x2="-300" y2="10" style="stroke:black;stroke-width:1.5"/>
        <line x1="-300" y1="10" x2="-290" y2="5" style="stroke:black;stroke-width:1.5"/>
        <line x1="-300" y1="10" x2="-290" y2="15" style="stroke:black;stroke-width:1.5"/>
        <g transform="translate(-300,0)">
            <svg width="300" height="20">
                <text x="98%" y="40%" text-anchor="end" font-size="11">lofffn</text>
                <text x="5%" y="40%" text-anchor="start" font-size="11">701</text>
            </svg>
        </g>

    </g>

    <g transform="translate(325,269)">
        <rect width="80" height="20" style="stroke:black;stroke-width:1.5;fill:none"/>
        <svg width="80" height="20">
            <text x="50%" y="70%" text-anchor="middle" font-size="11">Gi 0/33</text>
        </svg>


    </g>

    <g transform="translate(325,289)">
        <rect width="80" height="20" style="stroke:black;stroke-width:1.5;fill:none"/>
        <svg width="80" height="20">
            <text x="50%" y="70%" text-anchor="middle" font-size="11">Gi 0/34</text>
        </svg>


    </g>

    <g transform="translate(325,309)">
        <rect width="80" height="20" style="stroke:black;stroke-width:1.5;fill:none"/>
        <svg width="80" height="20">
            <text x="50%" y="70%" text-anchor="middle" font-size="11">Gi 0/35</text>
        </svg>


    </g>

    <g transform="translate(325,329)">
        <rect width="80" height="20" style="stroke:black;stroke-width:1.5;fill:none"/>
        <svg width="80" height="20">
            <text x="50%" y="70%" text-anchor="middle" font-size="11">Gi 0/36</text>
        </svg>


        <line x1="0" y1="10" x2="-300" y2="10" style="stroke:black;stroke-width:1.5"/>
        <line x1="-300" y1="10" x2="-290" y2="5" style="stroke:black;stroke-width:1.5"/>
        <line x1="-300" y1="10" x2="-290" y2="15" style="stroke:black;stroke-width:1.5"/>
        <g transform="translate(-300,0)">
            <svg width="300" height="20">
                <text x="98%" y="40%" text-anchor="end" font-size="11">m10-s4+m10-</text>
                <text x="5%" y="40%" text-anchor="start" font-size="11">801</text>
            </svg>
        </g>

    </g>

    <g transform="translate(325,349)">
        <rect width="80" height="20" style="stroke:black;stroke-width:1.5;fill:none"/>
        <svg width="80" height="20">
            <text x="50%" y="70%" text-anchor="middle" font-size="11">Gi 0/37</text>
        </svg>


        <line x1="0" y1="10" x2="-300" y2="10" style="stroke:black;stroke-width:1.5"/>
        <line x1="-300" y1="10" x2="-290" y2="5" style="stroke:black;stroke-width:1.5"/>
        <line x1="-300" y1="10" x2="-290" y2="15" style="stroke:black;stroke-width:1.5"/>
        <g transform="translate(-300,0)">
            <svg width="300" height="20">
                <text x="98%" y="40%" text-anchor="end" font-size="11">m10-s4+m10-</text>
                <text x="5%" y="40%" text-anchor="start" font-size="11">801</text>
            </svg>
        </g>

    </g>

    <g transform="translate(325,369)">
        <rect width="80" height="20" style="stroke:black;stroke-width:1.5;fill:none"/>
        <svg width="80" height="20">
            <text x="50%" y="70%" text-anchor="middle" font-size="11">Gi 0/38</text>
        </svg>


        <line x1="0" y1="10" x2="-300" y2="10" style="stroke:black;stroke-width:1.5"/>
        <line x1="-300" y1="10" x2="-290" y2="5" style="stroke:black;stroke-width:1.5"/>
        <line x1="-300" y1="10" x2="-290" y2="15" style="stroke:black;stroke-width:1.5"/>
        <g transform="translate(-300,0)">
            <svg width="300" height="20">
                <text x="98%" y="40%" text-anchor="end" font-size="11">m10-s2+m10-</text>
                <text x="5%" y="40%" text-anchor="start" font-size="11">801</text>
            </svg>
        </g>

    </g>

    <g transform="translate(325,389)">
        <rect width="80" height="20" style="stroke:black;stroke-width:1.5;fill:none"/>
        <svg width="80" height="20">
            <text x="50%" y="70%" text-anchor="middle" font-size="11">Gi 0/39</text>
        </svg>


    </g>

    <g transform="translate(325,409)">
        <rect width="80" height="20" style="stroke:black;stroke-width:1.5;fill:none"/>
        <svg width="80" height="20">
            <text x="50%" y="70%" text-anchor="middle" font-size="11">Gi 0/40</text>
        </svg>


        <line x1="0" y1="10" x2="-300" y2="10" style="stroke:black;stroke-width:1.5"/>
        <line x1="-300" y1="10" x2="-290" y2="5" style="stroke:black;stroke-width:1.5"/>
        <line x1="-300" y1="10" x2="-290" y2="15" style="stroke:black;stroke-width:1.5"/>
        <g transform="translate(-300,0)">
            <svg width="300" height="20">
                <text x="98%" y="40%" text-anchor="end" font-size="11">m10-w2+m10-</text>
                <text x="5%" y="40%" text-anchor="start" font-size="11">750</text>
            </svg>
        </g>

    </g>

    <g transform="translate(325,429)">
        <rect width="80" height="20" style="stroke:black;stroke-width:1.5;fill:none"/>
        <svg width="80" height="20">
            <text x="50%" y="70%" text-anchor="middle" font-size="11">Gi 0/41</text>
        </svg>


        <line x1="0" y1="10" x2="-300" y2="10" style="stroke:black;stroke-width:1.5"/>
        <line x1="-300" y1="10" x2="-290" y2="5" style="stroke:black;stroke-width:1.5"/>
        <line x1="-300" y1="10" x2="-290" y2="15" style="stroke:black;stroke-width:1.5"/>
        <g transform="translate(-300,0)">
            <svg width="300" height="20">
                <text x="98%" y="40%" text-anchor="end" font-size="11">m10-w1+m10-</text>
                <text x="5%" y="40%" text-anchor="start" font-size="11">750</text>
            </svg>
        </g>

    </g>

    <g transform="translate(325,449)">
        <rect width="80" height="20" style="stroke:black;stroke-width:1.5;fill:none"/>
        <svg width="80" height="20">
            <text x="50%" y="70%" text-anchor="middle" font-size="11">Gi 0/42</text>
        </svg>


        <line x1="0" y1="10" x2="-300" y2="10" style="stroke:black;stroke-width:1.5"/>
        <line x1="-300" y1="10" x2="-290" y2="5" style="stroke:black;stroke-width:1.5"/>
        <line x1="-300" y1="10" x2="-290" y2="15" style="stroke:black;stroke-width:1.5"/>
        <g transform="translate(-300,0)">
            <svg width="300" height="20">
                <text x="98%" y="40%" text-anchor="end" font-size="11">m10-cs1+m10</text>
                <text x="5%" y="40%" text-anchor="start" font-size="11">811</text>
            </svg>
        </g>

    </g>

    <g transform="translate(325,469)">
        <rect width="80" height="20" style="stroke:black;stroke-width:1.5;fill:none"/>
        <svg width="80" height="20">
            <text x="50%" y="70%" text-anchor="middle" font-size="11">Gi 0/43</text>
        </svg>


        <line x1="0" y1="10" x2="-300" y2="10" style="stroke:black;stroke-width:1.5"/>
        <line x1="-300" y1="10" x2="-290" y2="5" style="stroke:black;stroke-width:1.5"/>
        <line x1="-300" y1="10" x2="-290" y2="15" style="stroke:black;stroke-width:1.5"/>
        <g transform="translate(-300,0)">
            <svg width="300" height="20">
                <text x="98%" y="40%" text-anchor="end" font-size="11">ripn-mobile</text>
                <text x="5%" y="40%" text-anchor="start" font-size="11">416</text>
            </svg>
        </g>

    </g>

    <g transform="translate(325,489)">
        <rect width="80" height="20" style="stroke:black;stroke-width:1.5;fill:none"/>
        <svg width="80" height="20">
            <text x="50%" y="70%" text-anchor="middle" font-size="11">Gi 0/44</text>
        </svg>


    </g>

    <g transform="translate(325,509)">
        <rect width="80" height="20" style="stroke:black;stroke-width:1.5;fill:none"/>
        <svg width="80" height="20">
            <text x="50%" y="70%" text-anchor="middle" font-size="11">Gi 0/45</text>
        </svg>


        <line x1="0" y1="10" x2="-300" y2="10" style="stroke:black;stroke-width:1.5"/>
        <line x1="-300" y1="10" x2="-290" y2="5" style="stroke:black;stroke-width:1.5"/>
        <line x1="-300" y1="10" x2="-290" y2="15" style="stroke:black;stroke-width:1.5"/>
        <g transform="translate(-300,0)">
            <svg width="300" height="20">
                <text x="98%" y="40%" text-anchor="end" font-size="11">kxxx-14.2</text>
                <text x="5%" y="40%" text-anchor="start" font-size="11">875</text>
            </svg>
        </g>

    </g>

    <g transform="translate(325,529)">
        <rect width="80" height="20" style="stroke:black;stroke-width:1.5;fill:none"/>
        <svg width="80" height="20">
            <text x="50%" y="70%" text-anchor="middle" font-size="11">Gi 0/46</text>
        </svg>


        <line x1="0" y1="10" x2="-300" y2="10" style="stroke:black;stroke-width:1.5"/>
        <line x1="-300" y1="10" x2="-290" y2="5" style="stroke:black;stroke-width:1.5"/>
        <line x1="-300" y1="10" x2="-290" y2="15" style="stroke:black;stroke-width:1.5"/>
        <g transform="translate(-300,0)">
            <svg width="300" height="20">
                <text x="98%" y="40%" text-anchor="end" font-size="11">kxxx-15.2</text>
                <text x="5%" y="40%" text-anchor="start" font-size="11">879</text>
            </svg>
        </g>

    </g>

    <g transform="translate(325,549)">
        <rect width="80" height="20" style="stroke:black;stroke-width:1.5;fill:none"/>
        <svg width="80" height="20">
            <text x="50%" y="70%" text-anchor="middle" font-size="11">Gi 0/47</text>
        </svg>


        <line x1="0" y1="10" x2="-300" y2="10" style="stroke:black;stroke-width:1.5"/>
        <line x1="-300" y1="10" x2="-290" y2="5" style="stroke:black;stroke-width:1.5"/>
        <line x1="-300" y1="10" x2="-290" y2="15" style="stroke:black;stroke-width:1.5"/>
        <g transform="translate(-300,0)">
            <svg width="300" height="20">
                <text x="98%" y="40%" text-anchor="end" font-size="11">anfdffsk</text>
                <text x="5%" y="40%" text-anchor="start" font-size="11">701</text>
            </svg>
        </g>

    </g>

    <g transform="translate(325,569)">
        <rect width="80" height="20" style="stroke:black;stroke-width:1.5;fill:none"/>
        <svg width="80" height="20">
            <text x="50%" y="70%" text-anchor="middle" font-size="11">Te 0/48</text>
        </svg>


    </g>

    <g transform="translate(325,589)">
        <rect width="80" height="20" style="stroke:black;stroke-width:1.5;fill:none"/>
        <svg width="80" height="20">
            <text x="50%" y="70%" text-anchor="middle" font-size="11">Te 0/49</text>
        </svg>


    </g>

    <g transform="translate(325,609)">
        <rect width="80" height="20" style="stroke:black;stroke-width:1.5;fill:none"/>
        <svg width="80" height="20">
            <text x="50%" y="70%" text-anchor="middle" font-size="11">Te 0/50</text>
        </svg>


        <line x1="0" y1="10" x2="-300" y2="10" style="stroke:black;stroke-width:1.5"/>
        <line x1="-300" y1="10" x2="-290" y2="5" style="stroke:black;stroke-width:1.5"/>
        <line x1="-300" y1="10" x2="-290" y2="15" style="stroke:black;stroke-width:1.5"/>
        <g transform="translate(-300,0)">
            <svg width="300" height="20">
                <text x="98%" y="40%" text-anchor="end" font-size="11">m10-s4=m10-</text>
                <text x="5%" y="40%" text-anchor="start" font-size="11"></text>
            </svg>
        </g>

    </g>

    <g transform="translate(325,629)">
        <rect width="80" height="20" style="stroke:black;stroke-width:1.5;fill:none"/>
        <svg width="80" height="20">
            <text x="50%" y="70%" text-anchor="middle" font-size="11">Te 0/51</text>
        </svg>


        <line x1="0" y1="10" x2="-300" y2="10" style="stroke:black;stroke-width:1.5"/>
        <line x1="-300" y1="10" x2="-290" y2="5" style="stroke:black;stroke-width:1.5"/>
        <line x1="-300" y1="10" x2="-290" y2="15" style="stroke:black;stroke-width:1.5"/>
        <g transform="translate(-300,0)">
            <svg width="300" height="20">
                <text x="98%" y="40%" text-anchor="end" font-size="11">m10-s4=m10-</text>
                <text x="5%" y="40%" text-anchor="start" font-size="11"></text>
            </svg>
        </g>

    </g>

    <g transform="translate(405,109)">
        <rect width="214" height="860" style="stroke:black;stroke-width:1.5;fill:none"/>
        <svg width="214" height="860">
            <text x="50%" y="50%" text-anchor="middle" font-size="14">255.255.255.255</text>
        </svg>
    </g>
</svg>